<?xml version="1.0" standalone="no"?>
<!DOCTYPE svg PUBLIC "-//W3C//DTD SVG 20010904//EN"
 "http://www.w3.org/TR/2001/REC-SVG-20010904/DTD/svg10.dtd">
<svg version="1.0" xmlns="http://www.w3.org/2000/svg"
 width="1895.000000pt" height="712.000000pt" viewBox="0 0 1895.000000 712.000000"
 preserveAspectRatio="xMidYMid meet">

<g transform="translate(0.000000,712.000000) scale(0.100000,-0.100000)"
fill="#000000" stroke="none">
<path d="M3550 6284 c-267 -41 -536 -175 -737 -367 -173 -166 -293 -357 -366
-583 -68 -208 -67 -196 -67 -1438 l0 -1116 370 0 370 0 0 450 c0 248 2 450 4
450 2 0 36 -15 77 -34 177 -81 355 -119 564 -119 229 0 419 45 627 149 60 30
111 55 115 57 3 1 14 -20 23 -48 81 -236 265 -443 495 -555 186 -91 198 -93
690 -100 237 -3 439 -10 450 -15 51 -22 107 -70 132 -113 23 -39 28 -59 28
-117 0 -79 -17 -123 -68 -175 -71 -73 -23 -70 -884 -70 l-773 0 0 -370 0 -371
833 3 832 3 88 28 c328 102 571 339 670 652 74 236 57 491 -48 713 -58 122
-114 199 -214 295 -130 124 -261 197 -440 244 -94 26 -106 26 -523 32 l-426 6
-44 30 c-163 115 -150 334 27 429 40 21 45 21 648 21 l609 0 32 -95 c73 -212
171 -367 335 -530 202 -200 409 -313 683 -371 147 -32 390 -32 538 0 537 114
936 510 1063 1056 20 87 21 117 24 1008 l4 917 -370 0 -370 0 -3 -887 c-3
-887 -3 -888 -25 -946 -81 -212 -227 -353 -428 -413 -82 -25 -248 -25 -330 0
-168 50 -310 167 -384 317 -72 147 -71 121 -71 1077 l0 852 -370 0 -370 0 0
-619 0 -620 -622 -4 c-637 -4 -643 -4 -774 -42 -20 -6 -21 -2 -27 77 -31 433
-299 859 -678 1076 -285 164 -602 224 -919 176z m355 -739 c155 -32 309 -138
400 -274 218 -329 101 -761 -256 -941 -86 -44 -172 -63 -284 -63 -179 -1 -324
60 -456 192 -210 210 -249 527 -97 785 92 156 271 280 448 309 58 10 180 6
245 -8z"/>
<path d="M11270 5765 l0 -295 1980 0 1980 0 0 295 0 295 -1980 0 -1980 0 0
-295z"/>
<path d="M14403 4756 c-69 -23 -131 -64 -172 -116 -58 -73 -76 -135 -76 -260
0 -97 2 -110 31 -170 17 -36 49 -82 70 -104 22 -21 68 -53 104 -70 62 -29 71
-31 185 -31 102 0 129 4 177 23 57 23 158 103 158 125 0 7 -22 36 -48 65 l-47
54 -50 -49 c-118 -114 -297 -94 -367 41 -31 58 -31 184 -1 241 40 76 105 115
190 115 75 0 118 -17 174 -68 l52 -48 48 52 c27 28 49 56 49 62 0 21 -103 102
-158 123 -72 28 -253 37 -319 15z"/>
<path d="M11275 4747 c-3 -6 -4 -174 -3 -372 l3 -360 98 -3 97 -3 0 120 0 119
128 4 c114 3 132 6 178 31 92 47 134 119 134 229 0 117 -82 212 -205 236 -82
17 -424 16 -430 -1z m379 -141 c45 -19 66 -52 66 -104 0 -88 -36 -112 -170
-112 l-90 0 0 115 0 115 80 0 c46 0 95 -6 114 -14z"/>
<path d="M12065 4748 c-3 -7 -4 -175 -3 -373 l3 -360 98 -3 97 -3 0 131 0 130
73 0 c111 0 137 -27 163 -173 7 -45 14 -83 14 -84 0 -2 43 -3 95 -3 52 0 95 3
95 8 0 4 -6 46 -14 93 -20 124 -39 155 -121 197 -35 18 -37 21 -20 27 58 21
107 50 124 73 33 47 44 106 31 170 -10 47 -20 65 -59 102 -68 67 -93 72 -348
77 -181 4 -224 2 -228 -9z m395 -146 c45 -22 66 -64 54 -110 -15 -59 -51 -76
-160 -80 l-94 -4 0 106 0 106 83 0 c58 0 92 -5 117 -18z"/>
<path d="M12900 4385 l0 -375 95 0 95 0 0 375 0 375 -95 0 -95 0 0 -375z"/>
<path d="M13305 4747 c-3 -6 -4 -174 -3 -372 l3 -360 92 -3 93 -3 2 234 3 235
146 -232 146 -231 94 0 94 0 0 370 0 370 -90 0 -90 0 -5 -230 -5 -230 -144
233 -144 232 -94 0 c-66 0 -95 -4 -98 -13z"/>
<path d="M15050 4385 l0 -375 300 0 300 0 0 75 0 75 -205 0 -205 0 0 80 0 80
155 0 155 0 0 70 0 70 -155 0 -156 0 3 78 3 77 203 3 203 2 -3 68 -3 67 -297
3 -298 2 0 -375z"/>
<path d="M16117 4504 c-124 -38 -187 -189 -142 -340 30 -102 117 -158 245
-158 197 0 304 153 244 353 -38 129 -191 193 -347 145z m171 -104 c41 -25 62
-73 62 -141 0 -97 -47 -153 -130 -153 -83 0 -130 56 -130 153 0 98 51 161 130
161 19 0 50 -9 68 -20z"/>
<path d="M16640 4260 l0 -250 65 0 65 0 0 95 0 95 95 0 95 0 0 50 0 50 -95 0
-95 0 0 55 0 55 135 0 135 0 0 50 0 50 -200 0 -200 0 0 -250z"/>
<path d="M11460 3526 c-95 -21 -145 -58 -175 -128 -29 -71 -15 -149 39 -206
38 -41 132 -90 244 -127 94 -31 132 -57 132 -89 0 -42 -34 -60 -108 -60 -81 1
-161 23 -224 63 l-48 31 -35 -71 c-20 -38 -33 -74 -30 -80 4 -5 27 -20 53 -33
203 -103 471 -78 558 52 49 73 34 193 -32 251 -44 39 -127 81 -226 114 -131
44 -160 66 -138 107 26 49 176 46 282 -4 l48 -23 35 63 c19 34 35 65 35 69 0
12 -109 56 -177 70 -81 17 -158 18 -233 1z"/>
<path d="M12320 3530 c-80 -17 -170 -70 -212 -125 -57 -75 -73 -132 -73 -255
0 -125 18 -187 75 -259 76 -96 235 -146 383 -122 220 36 329 182 314 419 -4
70 -11 96 -41 158 -42 85 -93 130 -184 164 -64 24 -194 34 -262 20z m155 -151
c48 -12 101 -58 120 -104 34 -82 25 -219 -17 -281 -72 -105 -247 -103 -316 3
-71 107 -43 303 51 358 58 35 97 40 162 24z"/>
<path d="M14114 3525 c-34 -7 -76 -21 -94 -30 -59 -31 -126 -102 -156 -168
-27 -57 -29 -71 -29 -177 0 -105 2 -120 28 -176 67 -146 228 -228 407 -209
136 15 227 72 277 173 24 48 28 72 31 159 l4 103 -186 0 -186 0 0 -70 0 -70
90 0 c90 0 90 0 90 -25 0 -85 -102 -140 -214 -115 -109 24 -150 87 -150 225 0
74 4 98 22 132 66 126 246 148 364 44 20 -17 38 -31 40 -31 2 0 26 25 52 56
l48 56 -33 34 c-84 86 -250 123 -405 89z"/>
<path d="M12980 3150 l0 -370 95 0 95 0 2 230 3 230 145 -230 145 -230 98 0
97 0 0 370 0 370 -95 0 -95 0 -2 -231 -3 -231 -142 229 -141 228 -101 3 -101
3 0 -371z"/>
<path d="M14760 3150 l0 -370 95 0 95 0 0 88 0 87 51 63 c28 34 56 62 61 62
24 0 79 -80 128 -186 l53 -114 98 0 c89 0 98 2 92 18 -3 9 -39 85 -78 167 -62
130 -80 158 -127 201 l-55 50 99 114 c55 63 113 132 129 153 l31 37 -109 0
-108 -1 -130 -164 -130 -164 -3 164 -2 165 -95 0 -95 0 0 -370z"/>
<path d="M15600 3150 l0 -370 275 0 275 0 0 75 0 75 -175 0 -175 0 0 295 0
295 -100 0 -100 0 0 -370z"/>
<path d="M16428 3167 c-76 -193 -140 -360 -144 -369 -6 -16 3 -18 98 -18 l104
0 24 75 24 75 130 0 131 0 26 -73 25 -72 103 -3 c96 -3 103 -1 97 15 -4 10
-68 177 -144 370 l-137 352 -100 1 -100 0 -137 -353z m283 46 c23 -71 44 -134
47 -140 3 -10 -20 -13 -93 -13 -74 0 -96 3 -92 13 2 6 21 64 41 127 46 145 45
140 50 140 2 0 23 -57 47 -127z"/>
<path d="M15170 2293 c-99 -16 -140 -57 -140 -137 0 -84 35 -116 194 -175 77
-29 98 -50 76 -76 -21 -25 -130 -17 -193 14 -26 13 -49 22 -51 20 -20 -28 -45
-83 -40 -90 11 -19 82 -48 144 -59 154 -28 280 36 280 141 0 73 -60 127 -190
170 -82 27 -103 44 -89 72 10 17 19 19 83 15 39 -3 84 -12 101 -20 29 -16 30
-16 52 21 30 49 29 55 -14 75 -65 28 -149 40 -213 29z"/>
<path d="M11274 2276 c-3 -8 -4 -90 -2 -183 3 -154 5 -171 26 -208 29 -51 73
-81 140 -96 86 -18 173 2 230 55 48 43 52 63 52 261 l0 186 -62 -3 -63 -3 -3
-175 c-2 -163 -4 -176 -24 -197 -16 -18 -32 -23 -67 -23 -89 1 -101 31 -101
247 l0 153 -60 0 c-44 0 -62 -4 -66 -14z"/>
<path d="M11970 2040 l0 -251 63 3 62 3 5 147 5 146 94 -149 93 -149 64 0 64
0 0 250 0 251 -62 -3 -63 -3 -5 -147 -5 -147 -91 147 -91 147 -66 3 -67 3 0
-251z"/>
<path d="M12690 2040 l0 -250 65 0 65 0 0 250 0 250 -65 0 -65 0 0 -250z"/>
<path d="M13040 2283 c0 -4 41 -116 91 -250 l92 -244 65 3 65 3 66 175 c37 96
79 208 94 248 l27 72 -68 0 -67 0 -54 -162 c-29 -90 -57 -167 -61 -171 -4 -5
-33 68 -65 162 l-57 171 -64 0 c-35 0 -64 -3 -64 -7z"/>
<path d="M13740 2040 l0 -250 195 0 195 0 0 50 0 50 -130 0 -130 0 0 55 0 55
100 0 100 0 0 45 0 45 -100 0 -100 0 0 50 0 50 130 0 130 0 0 50 0 50 -195 0
-195 0 0 -250z"/>
<path d="M14375 2279 c-3 -8 -4 -120 -3 -249 l3 -235 63 -3 62 -3 0 86 0 85
53 0 c68 0 87 -19 102 -103 l11 -62 62 -3 c62 -3 62 -3 62 25 -1 80 -48 173
-87 173 -24 0 -13 15 26 33 70 32 92 130 44 196 -38 52 -84 65 -245 69 -120 4
-149 2 -153 -9z m273 -105 c15 -10 22 -25 22 -49 0 -48 -29 -65 -107 -65 l-63
0 0 65 0 65 63 0 c40 0 70 -5 85 -16z"/>
<path d="M15670 2040 l0 -250 65 0 65 0 0 250 0 250 -65 0 -65 0 0 -250z"/>
<path d="M16020 2235 l0 -55 70 0 70 0 0 -195 0 -195 65 0 65 0 0 195 0 195
70 0 70 0 0 55 0 55 -205 0 -205 0 0 -55z"/>
<path d="M16585 2273 c3 -10 44 -86 91 -170 l84 -152 0 -80 0 -81 65 0 65 0 0
78 0 77 90 169 c50 93 90 170 90 172 0 2 -30 4 -66 4 l-65 0 -31 -67 c-17 -37
-41 -93 -55 -123 l-25 -55 -61 123 -62 122 -63 0 c-57 0 -63 -2 -57 -17z"/>
<path d="M14355 1247 c-65 -21 -93 -45 -121 -103 -22 -46 -26 -64 -22 -123 6
-117 73 -186 193 -198 69 -7 152 17 189 56 30 32 28 48 -13 85 -20 18 -21 18
-50 -11 -96 -97 -245 0 -201 131 17 51 53 76 111 76 40 0 55 -5 84 -32 l36
-31 31 31 c30 29 31 32 15 55 -36 56 -172 90 -252 64z"/>
<path d="M16808 1245 c-53 -17 -76 -44 -85 -97 -11 -70 32 -111 169 -163 63
-23 79 -42 53 -62 -27 -19 -95 -10 -150 20 l-41 24 -22 -38 c-12 -21 -22 -42
-22 -47 0 -5 23 -19 52 -33 69 -32 195 -34 248 -4 50 29 74 82 60 134 -13 49
-46 74 -147 112 -86 32 -88 33 -80 54 8 20 102 20 137 0 37 -21 45 -19 63 20
23 49 22 51 -22 69 -60 23 -158 28 -213 11z"/>
<path d="M11270 1040 l0 -210 60 0 60 0 0 65 0 65 60 0 c112 0 171 44 177 132
5 67 -20 111 -80 138 -34 16 -65 20 -159 20 l-118 0 0 -210z m236 95 c34 -52
-12 -100 -87 -93 -34 3 -34 3 -37 61 l-3 57 55 0 c48 0 58 -3 72 -25z"/>
<path d="M11720 1040 l0 -210 60 0 60 0 0 80 0 80 70 0 70 0 0 -80 0 -80 60 0
60 0 0 210 0 210 -60 0 -60 0 0 -85 0 -85 -70 0 -70 0 0 85 0 85 -60 0 -60 0
0 -210z"/>
<path d="M12220 1091 c0 -147 2 -160 23 -191 37 -55 81 -75 167 -75 83 0 126
18 164 68 19 26 21 44 24 193 l3 164 -60 0 -61 0 0 -149 c0 -158 -3 -171 -51
-186 -32 -11 -76 13 -88 47 -6 17 -11 89 -11 159 l0 129 -55 0 -55 0 0 -159z"/>
<path d="M12720 1040 l0 -210 55 0 55 0 0 50 c0 41 5 56 29 82 28 32 30 32 49
15 11 -11 33 -48 48 -83 l27 -64 59 0 c32 0 58 2 58 5 0 21 -87 187 -112 212
l-31 32 65 73 c91 102 90 98 15 98 l-64 0 -69 -87 -69 -88 -3 88 -3 87 -54 0
-55 0 0 -210z"/>
<path d="M13190 1040 l0 -210 170 0 170 0 0 45 0 45 -110 0 -110 0 0 40 0 40
85 0 85 0 0 40 0 40 -85 0 -85 0 0 40 0 40 110 0 110 0 0 45 0 45 -170 0 -170
0 0 -210z"/>
<path d="M13620 1205 l0 -44 58 -3 57 -3 3 -162 2 -163 55 0 55 0 2 163 3 162
58 3 57 3 0 44 0 45 -175 0 -175 0 0 -45z"/>
<path d="M14846 1242 c-3 -5 -41 -99 -84 -210 l-80 -202 64 0 63 0 12 40 12
40 72 0 72 0 12 -40 12 -40 59 0 c33 0 60 3 60 8 0 4 -36 97 -79 207 l-79 200
-55 3 c-30 2 -58 -1 -61 -6z m61 -240 c-21 -2 -41 -2 -43 1 -2 2 6 32 18 68
l21 64 22 -65 22 -65 -40 -3z"/>
<path d="M15210 1040 l0 -210 55 0 54 0 3 112 3 112 34 -82 c32 -79 35 -82 66
-82 32 0 34 3 66 83 l34 82 3 -112 3 -113 54 0 55 0 0 210 0 211 -61 -3 -61
-3 -45 -108 c-25 -60 -49 -105 -53 -100 -4 4 -26 54 -50 111 l-43 102 -59 0
-58 0 0 -210z"/>
<path d="M15790 1041 l0 -211 55 0 55 0 0 65 0 65 65 0 c76 0 123 17 152 54
50 63 33 166 -36 208 -31 20 -52 23 -163 27 l-128 3 0 -211z m224 103 c20 -20
21 -68 1 -84 -9 -7 -38 -15 -65 -18 l-50 -5 0 62 0 61 49 0 c32 0 55 -6 65
-16z"/>
<path d="M16230 1113 c0 -159 9 -200 51 -241 81 -79 255 -64 311 27 21 33 23
51 26 194 l4 157 -61 0 -61 0 0 -149 0 -150 -27 -21 c-33 -26 -79 -21 -105 11
-15 18 -18 43 -18 165 l0 144 -60 0 -60 0 0 -137z"/>
</g>
</svg>
